<svg width="20" height="139" viewBox="0 0 20 139" fill="none" xmlns="http://www.w3.org/2000/svg">
<path d="M15 45.56H3.8V40.536C3.8 39.2453 4.13067 38.2693 4.792 37.608C5.29333 37.1067 5.92267 36.856 6.68 36.856C7.78933 36.856 8.62133 37.3893 9.176 38.456C9.67733 36.9733 10.5947 36.232 11.928 36.232C12.9093 36.232 13.6667 36.6053 14.2 37.352C14.7333 38.0987 15 39.1067 15 40.376V45.56ZM8.52 43.624V40.936C8.52 40.2853 8.392 39.7733 8.136 39.4C7.86933 39.016 7.48 38.824 6.968 38.824C6.52 38.824 6.17333 38.9947 5.928 39.336C5.672 39.6773 5.544 40.1627 5.544 40.792V43.624H8.52ZM13.256 43.624V40.36C13.256 39.6773 13.1227 39.1493 12.856 38.776C12.5893 38.392 12.2 38.2 11.688 38.2C10.6853 38.2 10.184 38.968 10.184 40.504V43.624H13.256ZM15 34.0131H3.8V32.0451H8.456V26.7011H3.8V24.7331H15V26.7011H10.28V32.0451H15V34.0131ZM15 21.8569H3.8V19.9209H11.976L3.8 14.2569V12.4169H15V14.3529H6.84L15 20.0009V21.8569ZM3.608 5.70512C3.608 4.55312 3.89067 3.60912 4.456 2.87313C5.02133 2.13713 5.74133 1.76912 6.616 1.76912C7.82133 1.76912 8.69067 2.40379 9.224 3.67312C9.42667 3.00112 9.752 2.46779 10.2 2.07312C10.648 1.67846 11.2187 1.48112 11.912 1.48112C12.8613 1.48112 13.6453 1.85979 14.264 2.61712C14.8827 3.37446 15.192 4.36646 15.192 5.59312C15.192 6.64912 15.0427 7.56112 14.744 8.32912C14.4347 9.08646 13.9707 9.79046 13.352 10.4411L11.992 9.36912C12.984 8.32379 13.48 7.08112 13.48 5.64112C13.48 5.02246 13.3307 4.50512 13.032 4.08912C12.7227 3.66246 12.312 3.44912 11.8 3.44912C11.2453 3.44912 10.8347 3.68379 10.568 4.15312C10.3013 4.62246 10.168 5.24112 10.168 6.00912V7.27312H8.536V6.02512C8.536 5.29979 8.39733 4.73446 8.12 4.32912C7.832 3.92379 7.42667 3.72112 6.904 3.72112C6.43467 3.72112 6.056 3.91846 5.768 4.31312C5.48 4.69712 5.336 5.20379 5.336 5.83312C5.336 7.05979 5.752 8.10512 6.584 8.96912L5.304 10.0251C4.17333 8.84112 3.608 7.40112 3.608 5.70512Z" fill="white" fill-opacity="0.8"/>
<rect x="11.5" y="59" width="80" height="3" rx="1.5" transform="rotate(90 11.5 59)" fill="white" fill-opacity="0.8"/>
</svg>
