<svg width="18" height="18" viewBox="0 0 18 18" fill="none" xmlns="http://www.w3.org/2000/svg">
<path fill-rule="evenodd" clip-rule="evenodd" d="M2.87298 0.960275C3.94875 -0.115499 5.72792 0.0109449 6.64075 1.22804L8.15597 3.24835C8.90245 4.24365 8.80347 5.63638 7.92374 6.51611L6.8066 7.63325C6.91486 7.91505 7.27127 8.53345 8.3566 9.61879C9.44193 10.7041 10.0603 11.0605 10.3421 11.1688L11.4593 10.0516C12.339 9.17192 13.7317 9.07294 14.727 9.81941L16.7473 11.3346C17.9644 12.2475 18.0909 14.0266 17.0151 15.1024C16.6654 15.4522 16.6062 15.5113 16.0225 16.095C15.4277 16.6899 14.1646 17.2458 12.8859 17.3014C10.8848 17.3884 8.16663 16.4999 4.82107 13.1543C1.47551 9.80876 0.586954 7.09062 0.673958 5.08951C0.722357 3.97634 1.07627 2.75373 1.88505 1.95752C2.46405 1.36921 2.53934 1.29391 2.87298 0.960275ZM2.33905 5.16191C2.27874 6.54903 2.86333 8.83956 5.99958 11.9758C9.13583 15.1121 11.4264 15.6966 12.8135 15.6363C14.1084 15.58 14.803 14.9543 14.844 14.9165L15.8366 13.9239C16.1952 13.5653 16.153 12.9723 15.7473 12.668L13.727 11.1527C13.3953 10.9039 12.931 10.9369 12.6378 11.2302C12.196 11.672 11.8944 11.978 11.304 12.5662C10.0776 13.7879 7.97841 11.5976 7.17809 10.7973C6.44261 10.0618 4.20122 7.89593 5.40801 6.67483C5.4104 6.67243 5.73544 6.34738 6.74523 5.3376C7.03847 5.04436 7.07146 4.58011 6.82264 4.24835L5.30741 2.22804C5.00314 1.82234 4.41008 1.7802 4.05149 2.13879C3.72144 2.46883 3.34793 2.84235 3.0599 3.13237C2.46709 3.72927 2.37078 4.43224 2.33905 5.16191Z" fill="white"/>
</svg>
