<svg width="100" height="100" viewBox="0 0 100 100" fill="none" xmlns="http://www.w3.org/2000/svg">
<circle cx="50" cy="50" r="50" fill="#C19D6D"/>
<path d="M40.8 56C40.3582 56 40 56.3582 40 56.8C40 58.5673 41.4327 60 43.2 60H56.8C58.5673 60 60 58.5673 60 56.8C60 56.3582 59.6418 56 59.2 56H40.8Z" fill="white"/>
<path fill-rule="evenodd" clip-rule="evenodd" d="M52.655 44.398C52.8753 43.9806 53 43.5048 53 43C53 41.3431 51.6569 40 50 40C48.3431 40 47 41.3431 47 43C47 43.5048 47.1247 43.9806 47.345 44.398C43.6704 45.5309 41 48.9536 41 53V53.5238C41 53.7868 41.2132 54 41.4762 54H58.5238C58.7868 54 59 53.7868 59 53.5238V53C59 48.9536 56.3296 45.5309 52.655 44.398ZM51 43C51 43.5523 50.5523 44 50 44C49.4477 44 49 43.5523 49 43C49 42.4477 49.4477 42 50 42C50.5523 42 51 42.4477 51 43Z" fill="white"/>
<path d="M87.8443 56.3078C87.6896 57.3039 87.3185 58.0822 86.7309 58.6427C86.1433 59.2032 85.4714 59.4247 84.7151 59.3073C83.6729 59.1455 83.0064 58.48 82.7157 57.3109C82.4503 57.8648 82.0974 58.2822 81.657 58.5633C81.2167 58.8445 80.6968 58.9385 80.0973 58.8454C79.2765 58.718 78.6494 58.2853 78.2161 57.5474C77.7829 56.8096 77.6486 55.9103 77.8132 54.8497C77.955 53.9366 78.2065 53.1681 78.5679 52.5442C78.937 51.9309 79.4327 51.3845 80.055 50.9049L81.087 52.0144C80.0889 52.785 79.4933 53.7929 79.3 55.038C79.2169 55.5729 79.2766 56.0403 79.479 56.4401C79.6892 56.8505 80.0156 57.0901 80.4583 57.1588C80.9379 57.2333 81.3245 57.0855 81.618 56.7155C81.9116 56.3455 82.11 55.8285 82.213 55.1644L82.3827 54.0715L83.7938 54.2906L83.6263 55.3696C83.5289 55.9968 83.5729 56.5042 83.7583 56.8919C83.9529 57.281 84.2762 57.5107 84.7281 57.5809C85.1339 57.6439 85.4878 57.5241 85.7898 57.2215C86.0904 56.9281 86.2829 56.5094 86.3674 55.9652C86.532 54.9046 86.3127 53.9449 85.7093 53.0862L86.9578 52.3449C87.7764 53.5204 88.072 54.8414 87.8443 56.3078Z" fill="white"/>
<path d="M77.3731 59.306L83.9641 67.8247L83.1984 69.225L72.4698 68.2729L73.343 66.676L75.8958 66.9391L78.1191 62.8732L76.5268 60.8537L77.3731 59.306ZM79.1557 64.1581L77.5369 67.1185L81.789 67.5129L79.1557 64.1581Z" fill="white"/>
<path d="M71.7232 68.806L78.265 76.1029L72.8236 80.9812L71.7863 79.8241L75.9559 76.086L74.4513 74.4077L72.4186 76.23C71.6055 76.959 70.7882 77.3407 69.9668 77.3752C69.1384 77.4159 68.4127 77.0888 67.7896 76.3939C67.1417 75.6711 66.883 74.9002 67.0136 74.0812C67.1442 73.2621 67.6335 72.4725 68.4813 71.7124L71.7232 68.806ZM71.4794 71.0928L69.7907 72.6068C69.207 73.1301 68.8509 73.5998 68.7224 74.0158C68.6002 74.4387 68.7322 74.8656 69.1185 75.2965C69.7602 76.0123 70.5745 75.9278 71.5613 75.0431L73.4794 73.3236L71.4794 71.0928Z" fill="white"/>
<path d="M64.7378 74.6205L68.7231 83.5736L65.193 85.1449C64.1527 85.608 63.2042 85.7033 62.3473 85.4308C61.4905 85.1584 60.8571 84.5617 60.4472 83.6409C60.0183 82.6773 60.0254 81.7752 60.4684 80.9343C60.9029 80.0973 61.636 79.4492 62.6677 78.9899L64.4456 78.1985L63.1646 75.3208L64.7378 74.6205ZM65.0775 79.6182L63.2485 80.4324C62.6602 80.6943 62.2576 81.0522 62.0409 81.5063C61.8241 81.9604 61.8239 82.4304 62.0403 82.9164C62.268 83.428 62.6174 83.7424 63.0885 83.8597C63.5548 83.9892 64.0864 83.9212 64.6832 83.6555L66.5122 82.8414L65.0775 79.6182Z" fill="white"/>
<path d="M48.752 79.8854C49.6476 78.8276 50.8354 78.2444 52.3154 78.1357C53.7954 78.0271 55.0507 78.4262 56.0812 79.3332C57.1117 80.2402 57.6789 81.4011 57.7828 82.8159C57.8853 84.2122 57.4888 85.4392 56.5932 86.4969C55.6975 87.5547 54.5097 88.1379 53.0297 88.2466C51.5497 88.3552 50.2944 87.9561 49.2639 87.0491C48.2334 86.1421 47.6662 84.9812 47.5623 83.5664C47.4598 82.1701 47.8563 80.9431 48.752 79.8854ZM54.8647 80.5455C54.1825 79.9218 53.3621 79.6451 52.4033 79.7155C51.4446 79.7859 50.6826 80.1788 50.1175 80.8941C49.543 81.6101 49.2917 82.4568 49.3635 83.4341C49.4345 84.4022 49.8112 85.1981 50.4933 85.8218C51.1669 86.4555 51.983 86.7372 52.9418 86.6668C53.9005 86.5964 54.6671 86.2032 55.2416 85.4872C55.8067 84.7719 56.0534 83.9255 55.9816 82.9482C55.9106 81.9801 55.5383 81.1792 54.8647 80.5455Z" fill="white"/>
<path d="M46.1528 78.3574L43.3396 87.745L41.6901 87.2507L42.8596 83.3481L38.3803 82.0058L37.2109 85.9084L35.5614 85.4141L38.3745 76.0265L40.024 76.5208L38.8385 80.477L43.3177 81.8193L44.5032 77.8631L46.1528 78.3574Z" fill="white"/>
<path d="M37.0408 75.3632L31.2183 83.2459L29.8557 82.2395L34.1062 76.4851L25.8693 79.2949L24.5742 78.3383L30.3968 70.4556L31.7594 71.4621L27.5172 77.2052L35.7346 74.3983L37.0408 75.3632Z" fill="white"/>
<path d="M29.3068 69.1591L21.2777 74.7781L19.0622 71.6124C18.4093 70.6795 18.1349 69.7665 18.239 68.8735C18.3431 67.9804 18.808 67.2449 19.6339 66.6669C20.498 66.0622 21.3849 65.8971 22.2948 66.1717C23.1993 66.4387 23.9753 67.0348 24.6229 67.96L25.7387 69.5544L28.3194 67.7483L29.3068 69.1591ZM24.4655 70.4454L23.3176 68.8052C22.9483 68.2776 22.5202 67.9506 22.0331 67.8244C21.5461 67.6982 21.0846 67.7876 20.6488 68.0927C20.19 68.4137 19.9479 68.8167 19.9226 69.3014C19.8844 69.7839 20.0525 70.2928 20.4271 70.828L21.575 72.4683L24.4655 70.4454Z" fill="white"/>
<path d="M21.0755 54.5007C22.2843 55.1788 23.0827 56.2341 23.4709 57.6664C23.859 59.0987 23.7059 60.407 23.0114 61.5912C22.317 62.7754 21.2852 63.553 19.9159 63.9241C18.5646 64.2903 17.2846 64.1343 16.0758 63.4562C14.867 62.7781 14.0686 61.7229 13.6804 60.2905C13.2923 58.8582 13.4454 57.5499 14.1398 56.3657C14.8343 55.1815 15.8661 54.4039 17.2354 54.0329C18.5867 53.6667 19.8667 53.8226 21.0755 54.5007ZM21.5899 60.6275C22.0725 59.8391 22.1881 58.981 21.9366 58.0532C21.6852 57.1253 21.1546 56.452 20.3449 56.0332C19.5327 55.6054 18.6537 55.5197 17.7078 55.776C16.7709 56.0299 16.0612 56.551 15.5786 57.3393C15.0845 58.1211 14.9632 58.9759 15.2147 59.9038C15.4661 60.8316 15.9979 61.5095 16.8101 61.9373C17.6198 62.3561 18.4976 62.4373 19.4435 62.181C20.3804 61.9271 21.0958 61.4092 21.5899 60.6275Z" fill="white"/>
<path d="M22.1041 51.422L12.3496 50.4788L12.7727 46.1032C12.8814 44.9791 13.2516 44.1569 13.8832 43.6366C14.3621 43.2422 14.9313 43.0769 15.5909 43.1407C16.5571 43.2341 17.2368 43.7687 17.63 44.7444C18.1915 43.4953 19.0529 42.9269 20.2141 43.0392C21.0688 43.1218 21.697 43.5108 22.0986 44.206C22.5002 44.9012 22.6475 45.8016 22.5406 46.9071L22.1041 51.422ZM16.6234 49.1902L16.8498 46.8491C16.9046 46.2824 16.8362 45.8257 16.6447 45.479C16.4448 45.1221 16.1219 44.9221 15.676 44.8789C15.2858 44.8412 14.9695 44.9607 14.7271 45.2373C14.4754 45.513 14.323 45.9249 14.27 46.473L14.0315 48.9395L16.6234 49.1902ZM20.7482 49.589L21.0231 46.7463C21.0806 46.1517 21.0089 45.6806 20.8081 45.333C20.6082 44.9761 20.2853 44.7761 19.8394 44.733C18.9661 44.6485 18.4648 45.2752 18.3354 46.613L18.0727 49.3303L20.7482 49.589Z" fill="white"/>
<path d="M22.9569 42.5558L16.0247 34.3124L16.7328 32.8821L27.4913 33.3968L26.6838 35.0278L24.1224 34.8689L22.0664 39.0219L23.7396 40.9749L22.9569 42.5558ZM20.9784 37.7802L22.4753 34.7565L18.2107 34.5354L20.9784 37.7802Z" fill="white"/>
<path d="M30.1533 30.9445L24.4372 25.0597L22.2078 27.2252L21.0957 26.0804L26.7998 20.5398L27.9118 21.6846L25.6824 23.8501L31.3986 29.7349L30.1533 30.9445Z" fill="white"/>
<path d="M34.9132 26.7438L30.5978 17.9451L32.1313 17.1929L33.6848 20.3605L35.7086 19.368C36.7141 18.8748 37.6336 18.7253 38.4669 18.9195C39.3045 19.1012 39.937 19.6279 40.3645 20.4993C40.8001 21.3876 40.8479 22.2374 40.5077 23.0487C40.1634 23.8517 39.4802 24.5039 38.4578 25.0053L34.9132 26.7438ZM35.7686 24.609L37.7546 23.635C38.3328 23.3514 38.7152 23.0079 38.902 22.6044C39.093 22.1885 39.0673 21.7333 38.8248 21.2389C38.6029 20.7864 38.2751 20.5209 37.8416 20.4424C37.404 20.3556 36.8919 20.456 36.3053 20.7437L34.3445 21.7054L35.7686 24.609Z" fill="white"/>
<path d="M54.3659 22.8235C52.958 22.649 51.8414 22.0215 51.016 20.9412C50.1918 19.8515 49.8675 18.5981 50.0432 17.1809C50.2177 15.773 50.8376 14.6414 51.9029 13.7859C52.9682 12.9304 54.228 12.5928 55.6822 12.7731C56.5251 12.8776 57.2222 13.0956 57.7736 13.4273C58.3342 13.7601 58.8435 14.2041 59.3013 14.7593L58.047 15.8876C57.2762 14.9739 56.4185 14.4584 55.4737 14.3413C54.5474 14.2265 53.7373 14.4647 53.0433 15.0558C52.3586 15.6481 51.956 16.4305 51.8354 17.4031C51.7161 18.3664 51.9201 19.224 52.4476 19.9759C52.9763 20.7186 53.6991 21.1467 54.6161 21.2604C55.1718 21.3293 55.6754 21.2882 56.1267 21.1373C56.5792 20.9771 57.0588 20.712 57.5654 20.3422L58.5253 21.5897C57.9076 22.0963 57.2753 22.4552 56.6284 22.6666C55.9815 22.878 55.2273 22.9303 54.3659 22.8235Z" fill="white"/>
<path d="M61.6853 24.7473L65.2705 17.3682L62.475 16.01L63.1724 14.5744L70.3249 18.0495L69.6275 19.4851L66.832 18.1268L63.2467 25.506L61.6853 24.7473Z" fill="white"/>
<path d="M73.8252 32.4587C72.4392 32.4568 71.2273 31.9254 70.1895 30.8647C69.1516 29.804 68.6468 28.5874 68.675 27.2149C68.7031 25.8424 69.2242 24.66 70.2382 23.6679C71.2389 22.6888 72.4322 22.2002 73.8182 22.2021C75.2042 22.204 76.4161 22.7353 77.454 23.796C78.4918 24.8568 78.9967 26.0734 78.9685 27.4459C78.9404 28.8184 78.4193 30.0007 77.4052 30.9929C76.4046 31.972 75.2112 32.4606 73.8252 32.4587ZM70.3861 27.3622C70.3496 28.2858 70.6675 29.0912 71.3398 29.7784C72.0121 30.4655 72.8039 30.7942 73.715 30.7645C74.6327 30.7416 75.4417 30.3874 76.1422 29.702C76.836 29.0232 77.2011 28.2219 77.2376 27.2983C77.2873 26.3748 76.976 25.5695 76.3036 24.8824C75.6313 24.1953 74.8363 23.8632 73.9187 23.8862C73.0075 23.9159 72.2017 24.2734 71.5013 24.9588C70.8075 25.6376 70.4357 26.4388 70.3861 27.3622Z" fill="white"/>
<path d="M74.2132 35.3735C74.0514 35.0063 73.9384 34.6226 73.8743 34.2225L75.2359 33.806C75.2525 33.9823 75.3021 34.1644 75.3849 34.3523C75.4752 34.5573 75.5823 34.7192 75.7061 34.8381C75.8421 34.9617 76.0655 35.0519 76.3761 35.1088C76.6906 35.1743 77.0734 35.1636 77.5248 35.0769C77.9885 34.995 78.6069 34.8245 79.38 34.5653C80.1532 34.3062 81.0608 33.9471 82.1028 33.4879L83.8707 32.7088L86.5806 38.8582L77.6127 42.8101L76.9183 41.2343L84.4641 37.9091L83.0979 34.8088L82.2908 35.1644C80.8986 35.7779 79.715 36.2281 78.7399 36.515C77.7734 36.7982 76.9902 36.9189 76.3905 36.8772C75.7993 36.8318 75.3382 36.6882 75.0073 36.4464C74.6887 36.2094 74.424 35.8518 74.2132 35.3735Z" fill="white"/>
</svg>
